<?xml version="1.0" encoding="utf-8"?>
<!-- Generator: Adobe Illustrator 25.4.1, SVG Export Plug-In . SVG Version: 6.00 Build 0)  -->
<svg version="1.1" id="Layer_1" xmlns="http://www.w3.org/2000/svg" xmlns:xlink="http://www.w3.org/1999/xlink" x="0px" y="0px"
	 viewBox="0 0 1080 1080" style="enable-background:new 0 0 1080 1080;" xml:space="preserve">
<style type="text/css">
	.st0{fill:#FFFFFF;}
	.st1{fill:#E8F900;}
</style>
<g>
	<g>
		<path class="st0" d="M113.7,487.5c-17.7-15.4-23.3-24.5-23.3-37c0-11.8,4.9-16.4,13.5-16.4s13.5,4.7,13.5,16.9l0,8.8l25.5,0l0-7.1
			c0-27.5-13-43.1-39.2-43.1c-26.2,0-40.2,15.7-40.2,42.7c0,19.6,7.4,33.6,29.9,53.4c17.7,15.4,23.1,24.5,23.1,38.7
			c0,12.7-5.4,17.2-14,17.2c-8.6,0-14-4.4-14-16.7l0-11.8l-25.5,0l0,9.8c0,27.5,13.3,43.1,39.7,43.1c26.5,0,40.7-15.7,40.7-43.6
			C143.3,521.1,136.2,507.4,113.7,487.5z"/>
		<path class="st0" d="M265.6,412l-27.9,171.6l25,0l4.9-33.6l30.6,0l0-0.5l4.9,34.1l27,0l-28-171.6L265.6,412z M270.8,526.7
			l11.7-84.8l0.5,0l12,84.8L270.8,526.7z"/>
		<path class="st0" d="M380.5,409.5c-26,0-39.7,15.7-39.7,42.2l0,92.2c0,26.5,13.7,42.2,39.7,42.2c26,0,39.7-15.7,39.7-42.2l0-24.3
			l-25.5,0l0,26.2c0,11.3-5.4,15.7-13.5,15.7c-8.1,0-13.5-4.4-13.5-15.7l0-95.8c0-11.3,5.4-15.9,13.5-15.9c8.1,0,13.5,4.7,13.5,15.9
			l0,19.9l25.5,0l0-18.1C420.3,425.2,406.5,409.5,380.5,409.5z"/>
		<polygon class="st0" points="436.5,583.5 510,583.5 510,559 463.4,559 463.4,506.3 500.4,506.3 500.4,481.8 463.4,481.8 
			463.4,436.4 510,436.4 510,411.9 436.4,411.9 		"/>
		<path class="st0" d="M283.8,706.1l27.2,0l17.7,133.1l0.5,0l17.6-133.1l24.8,0l-25.9,171.6l-35.8,0L283.8,706.1z"/>
		<path class="st0" d="M384.6,706.1l73.5,0l0,24.5l-46.6,0l0,45.3l37,0l0,24.5l-37,0l0,52.7l46.6,0l0,24.5l-73.5,0L384.6,706.1z"/>
		<path class="st0" d="M473.5,706l40,0c27.9,0,40,13,40,39.5l0,10.5c0,17.7-5.6,28.9-17.6,33.8l0,0.5c13.5,4.2,17.9,16.9,17.9,36.3
			l0,30.1c0,8.3,0.2,14.5,2.9,20.8l-27.5,0c-1.5-4.4-2.5-7.1-2.5-21.1l0-31.4c0-15.9-4.7-21.1-16.9-21.1l-9.3,0l0,73.5l-27,0
			L473.5,706z M510.3,779.6c10,0,16.2-4.4,16.2-18.1l0-13.2c0-12.3-4.2-17.7-13.7-17.6l-12.3,0l0,49L510.3,779.6z"/>
		<path class="st0" d="M572.3,706l27,0l0.1,171.6l-27,0L572.3,706z"/>
		<path class="st0" d="M617.7,837.9l0-92.2c0-26.5,13.7-42.2,39.7-42.2c26,0,39.7,15.7,39.7,42.2l0,18.1l-25.5,0l0-19.9
			c0-11.3-5.4-15.9-13.5-15.9c-8.1,0-13.5,4.7-13.5,15.9l0,95.8c0,11.3,5.4,15.7,13.5,15.7c8.1,0,13.5-4.4,13.5-15.7l0-26.2l25.5,0
			l0,24.3c0,26.5-13.7,42.2-39.7,42.2C631.4,880,617.7,864.3,617.7,837.9z"/>
		<path class="st0" d="M713.2,706l27,0l0,72.3l34.3-72.3l27,0l-32.1,63L802,877.5l-28.2,0L751,801.1l-10.8,21.8l0,54.7l-27,0
			L713.2,706z"/>
		<path class="st0" d="M808.3,836.8l0-9.8l25.5,0l0,11.8c0,12.3,5.4,16.7,14,16.7c8.6,0,14-4.4,14-17.2c0-14.2-5.4-23.3-23.1-38.7
			c-22.6-19.8-29.9-33.8-29.9-53.4c0-27,14-42.7,40.2-42.7c26.2,0,39.2,15.7,39.2,43.1l0,7.1l-25.5,0l0-8.8
			c0-12.3-4.9-16.9-13.5-16.9c-8.6,0-13.5,4.7-13.5,16.4c0,12.5,5.6,21.6,23.3,37c22.6,19.8,29.7,33.6,29.7,54.9
			c0,27.9-14.2,43.6-40.7,43.6C821.6,880,808.4,864.3,808.3,836.8z"/>
		<path class="st0" d="M67.7,706.2l38.5,0L123.3,829l0.5,0L141,706.1l38.5,0l0.1,171.6l-25.5,0l0-129.9l-0.5,0l-19.6,129.9l-22.5,0
			L91.7,747.8l-0.5,0l0,129.9l-23.5,0L67.7,706.2z"/>
		<path class="st0" d="M220.4,706.1l36.5,0l28,171.6l-27,0l-4.9-34.1l0,0.5l-30.6,0l-4.9,33.6l-25,0L220.4,706.1z M249.8,820.8
			l-12-84.8l-0.5,0l-11.7,84.8L249.8,820.8z"/>
		<path class="st0" d="M198.5,412l-39.7,0l0.1,171.6l27,0l0-69.9l12.7,0c27,0,40.2-15,40.2-42.4l0-16.9
			C238.7,427,225.4,412,198.5,412z M211.7,473c0,12.3-4.7,16.2-13.2,16.2l-12.7,0l0-52.7l12.7,0c8.6,0,13.2,3.9,13.2,16.2L211.7,473
			z"/>
	</g>
	<g>
		<path class="st1" d="M1015.9,457.9c-2.5-5.3-7-6.9-12.5-5.5c-2.4,0.6-4.6,1.9-6.9,2.9c-47.5,22-95,44.1-142.5,66.1
			c-11,5.1-22,10.2-34,15.7c1.4-10.7,2.8-19.2,12.1-25.8c16.5-11.7,31.7-25,47.5-37.7c12.8-10.3,25.9-20.3,38.3-31.2
			c2.8-2.4,4.3-7.8,3.9-11.6c-0.3-2.6-4.7-6.3-7.6-6.7c-3.4-0.4-7.7,1.6-10.6,3.8c-24.7,19.5-49.1,39.2-73.7,58.9
			c-2.1,1.6-4.2,3.2-7,5.3c-3.3-21.7-11.6-40.1-24.8-56.5c1.4-1.5,2.4-2.6,3.4-3.6c26.3-25.9,52.7-51.7,79-77.6
			c6-5.9,6.7-12.5,2.2-17c-4.6-4.5-10.3-3.8-16.3,2c-17.7,17.3-35.3,34.6-53,51.8c-10.1,9.9-20.2,19.7-30.4,29.7
			c-16.4-13.1-34.4-20.5-55.1-23.8c2.1-2.8,3.5-4.8,5-6.7c11.2-14.1,22.4-28.1,33.6-42.1c8.9-11.1,17.7-22.2,26.6-33.4
			c3.3-4.1,4.5-9.2,0.7-12.9c-2.6-2.5-7.3-3.9-11.1-3.8c-2.5,0.1-5.3,3.4-7.3,5.8c-22.2,27.6-45,54.8-66,83.3
			c-8.2,11.1-18.9,11.4-30.7,14.4c1.3-3.1,2.1-5.2,3-7.2c26.5-57.8,53-115.6,79.5-173.5c1.2-2.7,3.6-5.7,3.3-8.2
			c-0.6-4-2.1-8.9-5-11.2c-3.9-3.2-9.1-2-12.6,2.2c-1.4,1.7-2.3,3.8-3.2,5.9c-30.2,65.7-60.5,131.4-90.3,197.3
			c-4.4,9.7-10.7,16.8-18.8,22.9c-1.4,1.4-3.5,3.3-5.7,5.9c-29.8,33.8-23.9,80.9-23.3,85.1c0.8,5.6,5.9,40.5,34.7,66.6
			c17.9,16.3,39,25.9,63.1,28.1c0,0,19.5,1.9,39.2-3.2c29.5-7.5,47.1-30,69.7-49c0,0,74.8-34.8,192.7-89.5c2.3-1,4.7-1.9,6.7-3.3
			C1016.6,467.7,1018.4,463.3,1015.9,457.9z M713.5,593c-47.6-0.2-85.9-39.3-85.7-87.6c0.2-46.7,39.5-85.7,86.2-85.8
			c48.2,0,86.5,39.3,86.3,88.6C800.2,554.9,760.9,593.2,713.5,593z"/>
	</g>
</g>
</svg>
