<svg version="1.1" id="Layer_1" xmlns="http://www.w3.org/2000/svg" x="0" y="0" viewBox="0 0 1080 1080" style="enable-background:new 0 0 1080 1080" xml:space="preserve">
    <style>
        .st0{fill:#fff}
    </style>
    <path class="st0" d="M113.7 487.5c-17.7-15.4-23.3-24.5-23.3-37 0-11.8 4.9-16.4 13.5-16.4s13.5 4.7 13.5 16.9v8.8h25.5v-7.1c0-27.5-13-43.1-39.2-43.1-26.2 0-40.2 15.7-40.2 42.7 0 19.6 7.4 33.6 29.9 53.4 17.7 15.4 23.1 24.5 23.1 38.7 0 12.7-5.4 17.2-14 17.2s-14-4.4-14-16.7v-11.8H63v9.8c0 27.5 13.3 43.1 39.7 43.1 26.5 0 40.7-15.7 40.7-43.6-.1-21.3-7.2-35-29.7-54.9zM265.6 412l-27.9 171.6h25l4.9-33.6h30.6v-.5l4.9 34.1h27l-28-171.6h-36.5zm5.2 114.7 11.7-84.8h.5l12 84.8h-24.2zM380.5 409.5c-26 0-39.7 15.7-39.7 42.2v92.2c0 26.5 13.7 42.2 39.7 42.2 26 0 39.7-15.7 39.7-42.2v-24.3h-25.5v26.2c0 11.3-5.4 15.7-13.5 15.7s-13.5-4.4-13.5-15.7V450c0-11.3 5.4-15.9 13.5-15.9s13.5 4.7 13.5 15.9v19.9h25.5v-18.1c.1-26.6-13.7-42.3-39.7-42.3zM436.5 583.5H510V559h-46.6v-52.7h37v-24.5h-37v-45.4H510v-24.5h-73.6zM283.8 706.1H311l17.7 133.1h.5l17.6-133.1h24.8l-25.9 171.6h-35.8l-26.1-171.6zM384.6 706.1h73.5v24.5h-46.6v45.3h37v24.5h-37v52.7h46.6v24.5h-73.5V706.1zM473.5 706h40c27.9 0 40 13 40 39.5V756c0 17.7-5.6 28.9-17.6 33.8v.5c13.5 4.2 17.9 16.9 17.9 36.3v30.1c0 8.3.2 14.5 2.9 20.8h-27.5c-1.5-4.4-2.5-7.1-2.5-21.1V825c0-15.9-4.7-21.1-16.9-21.1h-9.3v73.5h-27V706zm36.8 73.6c10 0 16.2-4.4 16.2-18.1v-13.2c0-12.3-4.2-17.7-13.7-17.6h-12.3v49l9.8-.1zM572.3 706h27l.1 171.6h-27l-.1-171.6zM617.7 837.9v-92.2c0-26.5 13.7-42.2 39.7-42.2 26 0 39.7 15.7 39.7 42.2v18.1h-25.5v-19.9c0-11.3-5.4-15.9-13.5-15.9s-13.5 4.7-13.5 15.9v95.8c0 11.3 5.4 15.7 13.5 15.7s13.5-4.4 13.5-15.7v-26.2h25.5v24.3c0 26.5-13.7 42.2-39.7 42.2-26 0-39.7-15.7-39.7-42.1zM713.2 706h27v72.3l34.3-72.3h27l-32.1 63L802 877.5h-28.2L751 801.1l-10.8 21.8v54.7h-27V706zM808.3 836.8V827h25.5v11.8c0 12.3 5.4 16.7 14 16.7s14-4.4 14-17.2c0-14.2-5.4-23.3-23.1-38.7-22.6-19.8-29.9-33.8-29.9-53.4 0-27 14-42.7 40.2-42.7 26.2 0 39.2 15.7 39.2 43.1v7.1h-25.5v-8.8c0-12.3-4.9-16.9-13.5-16.9s-13.5 4.7-13.5 16.4c0 12.5 5.6 21.6 23.3 37 22.6 19.8 29.7 33.6 29.7 54.9 0 27.9-14.2 43.6-40.7 43.6-26.4.1-39.6-15.6-39.7-43.1zM67.7 706.2h38.5L123.3 829h.5L141 706.1h38.5l.1 171.6h-25.5V747.8h-.5L134 877.7h-22.5L91.7 747.8h-.5v129.9H67.7V706.2zM220.4 706.1h36.5l28 171.6h-27l-4.9-34.1v.5h-30.6l-4.9 33.6h-25l27.9-171.6zm29.4 114.7-12-84.8h-.5l-11.7 84.8h24.2zM198.5 412h-39.7l.1 171.6h27v-69.9h12.7c27 0 40.2-15 40.2-42.4v-16.9c-.1-27.4-13.4-42.4-40.3-42.4zm13.2 61c0 12.3-4.7 16.2-13.2 16.2h-12.7v-52.7h12.7c8.6 0 13.2 3.9 13.2 16.2V473z"/>
    <path d="M1015.9 457.9c-2.5-5.3-7-6.9-12.5-5.5-2.4.6-4.6 1.9-6.9 2.9-47.5 22-95 44.1-142.5 66.1-11 5.1-22 10.2-34 15.7 1.4-10.7 2.8-19.2 12.1-25.8 16.5-11.7 31.7-25 47.5-37.7 12.8-10.3 25.9-20.3 38.3-31.2 2.8-2.4 4.3-7.8 3.9-11.6-.3-2.6-4.7-6.3-7.6-6.7-3.4-.4-7.7 1.6-10.6 3.8-24.7 19.5-49.1 39.2-73.7 58.9-2.1 1.6-4.2 3.2-7 5.3-3.3-21.7-11.6-40.1-24.8-56.5 1.4-1.5 2.4-2.6 3.4-3.6 26.3-25.9 52.7-51.7 79-77.6 6-5.9 6.7-12.5 2.2-17-4.6-4.5-10.3-3.8-16.3 2-17.7 17.3-35.3 34.6-53 51.8-10.1 9.9-20.2 19.7-30.4 29.7-16.4-13.1-34.4-20.5-55.1-23.8 2.1-2.8 3.5-4.8 5-6.7 11.2-14.1 22.4-28.1 33.6-42.1 8.9-11.1 17.7-22.2 26.6-33.4 3.3-4.1 4.5-9.2.7-12.9-2.6-2.5-7.3-3.9-11.1-3.8-2.5.1-5.3 3.4-7.3 5.8-22.2 27.6-45 54.8-66 83.3-8.2 11.1-18.9 11.4-30.7 14.4 1.3-3.1 2.1-5.2 3-7.2 26.5-57.8 53-115.6 79.5-173.5 1.2-2.7 3.6-5.7 3.3-8.2-.6-4-2.1-8.9-5-11.2-3.9-3.2-9.1-2-12.6 2.2-1.4 1.7-2.3 3.8-3.2 5.9-30.2 65.7-60.5 131.4-90.3 197.3-4.4 9.7-10.7 16.8-18.8 22.9-1.4 1.4-3.5 3.3-5.7 5.9-29.8 33.8-23.9 80.9-23.3 85.1.8 5.6 5.9 40.5 34.7 66.6 17.9 16.3 39 25.9 63.1 28.1 0 0 19.5 1.9 39.2-3.2 29.5-7.5 47.1-30 69.7-49 0 0 74.8-34.8 192.7-89.5 2.3-1 4.7-1.9 6.7-3.3 4.9-2.9 6.7-7.3 4.2-12.7zM713.5 593c-47.6-.2-85.9-39.3-85.7-87.6.2-46.7 39.5-85.7 86.2-85.8 48.2 0 86.5 39.3 86.3 88.6-.1 46.7-39.4 85-86.8 84.8z" style="fill:#e8f900"/>
</svg>
